<?xml version="1.0" encoding="utf-8"?>
<!-- Generator: Adobe Illustrator 23.0.5, SVG Export Plug-In . SVG Version: 6.00 Build 0)  -->
<svg version="1.1" id="Layer_1" xmlns="http://www.w3.org/2000/svg" xmlns:xlink="http://www.w3.org/1999/xlink" x="0px" y="0px"
	 viewBox="0 0 4743.4 3162.3" style="enable-background:new 0 0 4743.4 3162.3;" xml:space="preserve">
<style type="text/css">
	.st0{fill-rule:evenodd;clip-rule:evenodd;fill:#FFFFFF;}
	.st1{fill-rule:evenodd;clip-rule:evenodd;fill:#E4F1F8;}
	.st2{fill-rule:evenodd;clip-rule:evenodd;fill:#3EA4EB;}
	.st3{fill-rule:evenodd;clip-rule:evenodd;fill:#3C9EE6;}
	.st4{fill-rule:evenodd;clip-rule:evenodd;fill:#CBEAFF;}
	.st5{fill-rule:evenodd;clip-rule:evenodd;fill:#D4D7FF;}
	.st6{fill-rule:evenodd;clip-rule:evenodd;fill:#B9D7E8;}
	.st7{fill-rule:evenodd;clip-rule:evenodd;fill:#F37862;}
	.st8{fill-rule:evenodd;clip-rule:evenodd;fill:#D6C5FA;}
	.st9{fill-rule:evenodd;clip-rule:evenodd;fill:#848CD2;}
	.st10{fill-rule:evenodd;clip-rule:evenodd;fill:#587690;}
	.st11{fill-rule:evenodd;clip-rule:evenodd;fill:#FF8662;}
	.st12{fill-rule:evenodd;clip-rule:evenodd;fill:#2B1710;}
	.st13{fill-rule:evenodd;clip-rule:evenodd;fill:#693E2F;}
	.st14{fill-rule:evenodd;clip-rule:evenodd;fill:#495C7A;}
	.st15{fill-rule:evenodd;clip-rule:evenodd;fill:#627594;}
	.st16{fill-rule:evenodd;clip-rule:evenodd;fill:#6586A5;}
	.st17{fill-rule:evenodd;clip-rule:evenodd;fill:#496278;}
	.st18{fill-rule:evenodd;clip-rule:evenodd;fill:#B2D3F1;}
	.st19{fill-rule:evenodd;clip-rule:evenodd;fill:#E75E54;}
	.st20{fill-rule:evenodd;clip-rule:evenodd;fill:#253B59;}
	.st21{fill-rule:evenodd;clip-rule:evenodd;fill:#19273B;}
	.st22{fill-rule:evenodd;clip-rule:evenodd;fill:#213A72;}
	.st23{fill-rule:evenodd;clip-rule:evenodd;fill:#FCCA8F;}
	.st24{fill-rule:evenodd;clip-rule:evenodd;fill:#FF7A52;}
	.st25{fill-rule:evenodd;clip-rule:evenodd;fill:#F6DCCA;}
	.st26{fill-rule:evenodd;clip-rule:evenodd;fill:#FF7200;}
	.st27{fill-rule:evenodd;clip-rule:evenodd;fill:#0F275C;}
	.st28{fill-rule:evenodd;clip-rule:evenodd;fill:#B26652;}
	.st29{fill-rule:evenodd;clip-rule:evenodd;fill:#C8906B;}
	.st30{fill-rule:evenodd;clip-rule:evenodd;fill:#E4B492;}
	.st31{fill-rule:evenodd;clip-rule:evenodd;fill:#FCDCB5;}
	.st32{fill-rule:evenodd;clip-rule:evenodd;fill:#C13455;}
	.st33{fill-rule:evenodd;clip-rule:evenodd;fill:#FFB02B;}
	.st34{fill-rule:evenodd;clip-rule:evenodd;fill:#FA394B;}
	.st35{fill-rule:evenodd;clip-rule:evenodd;fill:#F2F8FF;}
	.st36{fill-rule:evenodd;clip-rule:evenodd;fill:#92BEF4;}
	.st37{fill-rule:evenodd;clip-rule:evenodd;fill:#221E54;}
	.st38{fill-rule:evenodd;clip-rule:evenodd;fill:#B6D8F8;}
	.st39{fill-rule:evenodd;clip-rule:evenodd;fill:#D3EAF7;}
</style>
<rect class="st0" width="4743.4" height="3162.3"/>
<path class="st1" d="M2824.6,211.4c-996.4-93.3-1070.6,474.9-1202.3,798.8c-49.4,120.8-134.5,211.4-222.3,277.2
	c-112.5,85.1-247.1,137.3-387,153.7C112.5,1561.9,258,2778,598.4,2879.5h3593.2C5078.3,1194.1,3821.1,302,2824.6,211.4z"/>
<path class="st2" d="M3961.1,2909.7c829-304.7,502.3-1680,502.3-1680C3598.7,1770.5,3722.3,2874,3722.3,2874L3961.1,2909.7z"/>
<path class="st3" d="M3914.4,2703.9c-22,63.1-43.9,126.3-63.1,189.4c-41.2-5.5-82.4-13.7-126.3-19.2c0,0-87.8-760.4,378.8-1325.9
	c101.6-123.5,225.1-230.6,362.3-315.7C4466.2,1229.8,4145,2031.3,3914.4,2703.9z"/>
<path class="st4" d="M4112.1,2890.5c93.3-370.6,211.4-463.9,409-529.8c104.3,420-277.2,571-277.2,571L4112.1,2890.5z"/>
<path class="st5" d="M4414,2810.9c-79.6,85.1-170.2,120.8-170.2,120.8c-19.2-5.5-38.4-11-54.9-16.5
	c109.8-183.9,222.3-367.8,332.1-554.5C4573.2,2577.6,4499.1,2723.1,4414,2810.9z"/>
<path class="st2" d="M870.2,2909.7c-829-304.7-502.3-1680-502.3-1680C1232.5,1770.5,1109,2874,1109,2874L870.2,2909.7z"/>
<path class="st3" d="M919.6,2703.9c22,63.1,43.9,126.3,63.1,189.4c41.2-5.5,82.4-13.7,126.3-19.2c0,0,87.8-760.4-378.8-1325.9
	c-101.6-123.5-225.1-230.6-362.3-315.7C367.8,1229.8,689,2031.3,919.6,2703.9z"/>
<path class="st4" d="M719.2,2890.5c-93.3-370.6-211.4-466.7-409-529.8c-104.3,420,277.2,571,277.2,571L719.2,2890.5z"/>
<path class="st5" d="M420,2810.9c79.6,85.1,167.4,120.8,167.4,120.8c19.2-5.5,38.4-11,54.9-16.5
	c-109.8-183.9-222.3-367.8-332.1-554.5C258,2577.6,332.1,2723.1,420,2810.9z"/>
<path class="st1" d="M1100.8,480.4c-518.8,2.7-658.8,513.3-376.1,798.8C1114.5,1677.2,2185,474.9,1100.8,480.4z"/>
<path class="st6" d="M2132.9,546.3c-5.5,0-11,5.5-11,11s5.5,11,11,11c5.5,0,11-5.5,11-11C2143.9,551.8,2138.4,546.3,2132.9,546.3
	L2132.9,546.3z M2132.9,573.7c-8.2,0-16.5-8.2-16.5-16.5s8.2-16.5,16.5-16.5s16.5,8.2,16.5,16.5
	C2146.6,568.2,2141.1,573.7,2132.9,573.7z"/>
<path class="st6" d="M2132.9,546.3L2132.9,546.3C2130.1,546.3,2130.1,546.3,2132.9,546.3l-2.7-19.2c0,0,0-2.7,2.7-2.7
	c0,0,2.7,0,2.7,2.7L2132.9,546.3C2135.6,546.3,2132.9,546.3,2132.9,546.3z"/>
<rect x="1526.2" y="527" class="st2" width="1954.5" height="153.7"/>
<path class="st0" d="M1825.4,603.9c0,13.7-11,24.7-24.7,24.7c-13.7,0-24.7-11-24.7-24.7c0-13.7,11-24.7,24.7-24.7
	C1814.5,579.2,1825.4,590.2,1825.4,603.9z"/>
<path class="st0" d="M1723.9,603.9c0,13.7-11,24.7-24.7,24.7c-13.7,0-24.7-11-24.7-24.7c0-13.7,11-24.7,24.7-24.7
	C1712.9,579.2,1723.9,590.2,1723.9,603.9z"/>
<path class="st7" d="M1622.3,603.9c0,13.7-11,24.7-24.7,24.7c-13.7,0-24.7-11-24.7-24.7c0-13.7,11-24.7,24.7-24.7
	C1611.3,579.2,1622.3,590.2,1622.3,603.9z"/>
<rect x="1526.2" y="680.8" class="st4" width="1951.7" height="1292.9"/>
<path class="st8" d="M2053.3,1987.4h-831.7c-38.4,0-68.6-30.2-68.6-68.6v-697.2c0-38.4,30.2-68.6,68.6-68.6h831.7
	c38.4,0,68.6,30.2,68.6,68.6v697.2C2121.9,1957.2,2091.7,1987.4,2053.3,1987.4z"/>
<path class="st2" d="M1238,1400h-16.5c-2.7,0-5.5-2.7-5.5-5.5v-175.7c0-2.7,2.7-5.5,5.5-5.5h16.5c2.7,0,5.5,2.7,5.5,5.5v175.7
	C1246.2,1397.2,1243.5,1400,1238,1400z"/>
<path class="st2" d="M1298.4,1400h-16.5c-2.7,0-5.5-2.7-5.5-5.5v-60.4c0-2.7,2.7-5.5,5.5-5.5h16.5c2.7,0,5.5,2.7,5.5,5.5v60.4
	C1303.9,1397.2,1301.1,1400,1298.4,1400z"/>
<path class="st2" d="M1356,1400h-16.5c-2.7,0-5.5-2.7-5.5-5.5v-118c0-2.7,2.7-5.5,5.5-5.5h16.5c2.7,0,5.5,2.7,5.5,5.5v118
	C1364.3,1397.2,1361.5,1400,1356,1400z"/>
<path class="st2" d="M1970.9,1830.9h-606.7c-5.5,0-11-5.5-11-11v-24.7c0-5.5,5.5-11,11-11h606.7c5.5,0,11,5.5,11,11v24.7
	C1979.2,1828.2,1976.4,1830.9,1970.9,1830.9z"/>
<path class="st9" d="M1309.4,1913.3h-24.7c-5.5,0-11-5.5-11-11v-24.7c0-5.5,5.5-11,11-11h24.7c5.5,0,11,5.5,11,11v24.7
	C1317.6,1907.8,1314.9,1913.3,1309.4,1913.3z"/>
<path class="st2" d="M1970.9,1913.3h-606.7c-5.5,0-11-5.5-11-11v-24.7c0-5.5,5.5-11,11-11h606.7c5.5,0,11,5.5,11,11v24.7
	C1979.2,1907.8,1976.4,1913.3,1970.9,1913.3z"/>
<path class="st2" d="M3346.2,1550.9H2270.1c-22,0-41.2-19.2-41.2-41.2V782.3c0-22,19.2-41.2,41.2-41.2h1076.1
	c22,0,41.2,19.2,41.2,41.2v727.4C3387.4,1531.7,3368.2,1550.9,3346.2,1550.9z"/>
<polygon class="st10" points="2286.6,2141.1 2338.8,2141.1 2487,2835.6 2434.8,2835.6 "/>
<path class="st11" d="M2736.8,2717.6l-8.2,52.2c11,27.5,5.5,65.9,5.5,65.9l-214.1,2.7c22-43.9,123.5-46.7,134.5-68.6
	s13.7-82.4,13.7-82.4L2736.8,2717.6z"/>
<path class="st12" d="M2687.4,2772.5c0-8.2-5.5-35.7-24.7-41.2c-2.7,13.7-5.5,30.2-8.2,38.4c-11,22-109.8,24.7-134.5,68.6l214.1-2.7
	c0,0,5.5-35.7-5.5-65.9C2725.8,2769.7,2687.4,2786.2,2687.4,2772.5z"/>
<path class="st13" d="M2525.4,2827.4c-2.7,2.7-5.5,5.5-5.5,8.2l214.1-2.7c0,0,0-2.7,0-8.2L2525.4,2827.4z"/>
<path class="st13" d="M2668.2,2778L2668.2,2778c0,0-5.5-8.2-11-11c-2.7,0-5.5,0-8.2,0c0,0,0,0-2.7,0c0,0,0,0,0-2.7
	c2.7-2.7,8.2-2.7,11,0C2665.4,2767,2670.9,2775.2,2668.2,2778C2670.9,2778,2670.9,2778,2668.2,2778L2668.2,2778z"/>
<path class="st13" d="M2649,2791.7L2649,2791.7c0,0-5.5-8.2-11-11c-2.7,0-5.5,0-8.2,0c0,0,0,0-2.7,0c0,0,0,0,0-2.7
	c2.7-2.7,8.2-2.7,11,0C2646.2,2780.7,2649,2791.7,2649,2791.7L2649,2791.7L2649,2791.7z"/>
<path class="st13" d="M2616,2802.7C2616,2802.7,2613.3,2802.7,2616,2802.7c0,0-5.5-8.2-11-11c-2.7,0-5.5,0-8.2,0c0,0,0,0-2.7,0
	c0,0,0,0,0-2.7c2.7-2.7,8.2-2.7,11,0C2613.3,2791.7,2616,2799.9,2616,2802.7C2616,2799.9,2616,2802.7,2616,2802.7L2616,2802.7z"/>
<path class="st11" d="M2525.4,2717.6l-8.2,52.2c11,27.5,5.5,65.9,5.5,65.9l-214.1,2.7c22-43.9,123.5-46.7,134.5-68.6
	s13.7-82.4,13.7-82.4L2525.4,2717.6z"/>
<path class="st12" d="M2478.8,2772.5c0-8.2-5.5-35.7-24.7-41.2c-2.7,13.7-5.5,30.2-11,38.4c-11,22-109.8,24.7-134.5,68.6l214.1-2.7
	c0,0,5.5-35.7-5.5-65.9C2517.2,2769.7,2478.8,2786.2,2478.8,2772.5z"/>
<path class="st13" d="M2316.8,2827.4c-2.7,2.7-5.5,5.5-5.5,8.2l214.1-2.7c0,0,0-2.7,0-8.2L2316.8,2827.4z"/>
<path class="st13" d="M2459.5,2778L2459.5,2778c0,0-5.5-8.2-11-11c-2.7,0-5.5,0-8.2,0c0,0,0,0-2.7,0c0,0,0,0,0-2.7
	c2.7-2.7,8.2-2.7,11,0C2456.8,2767,2462.3,2775.2,2459.5,2778C2462.3,2778,2462.3,2778,2459.5,2778L2459.5,2778z"/>
<path class="st13" d="M2440.3,2791.7C2440.3,2791.7,2437.6,2791.7,2440.3,2791.7c0,0-5.5-8.2-11-11c-2.7,0-5.5,0-8.2,0
	c0,0,0,0-2.7,0c0,0,0,0,0-2.7c2.7-2.7,8.2-2.7,11,0C2437.6,2780.7,2440.3,2791.7,2440.3,2791.7L2440.3,2791.7L2440.3,2791.7z"/>
<path class="st13" d="M2407.4,2802.7C2407.4,2802.7,2404.6,2802.7,2407.4,2802.7c0,0-5.5-8.2-11-11c-2.7,0-5.5,0-8.2,0
	c0,0,0,0-2.7,0c0,0,0,0,0-2.7c2.7-2.7,8.2-2.7,11,0C2404.6,2791.7,2407.4,2799.9,2407.4,2802.7
	C2407.4,2799.9,2407.4,2802.7,2407.4,2802.7L2407.4,2802.7z"/>
<rect x="853.7" y="2371.7" class="st10" width="49.4" height="400.8"/>
<rect x="738.4" y="2728.6" class="st10" width="280" height="43.9"/>
<path class="st14" d="M985.5,2371.7H625.9V1809c0-85.1,68.6-153.7,153.7-153.7h52.2c85.1,0,153.7,68.6,153.7,153.7
	C985.5,1809,985.5,2371.7,985.5,2371.7z"/>
<path class="st15" d="M1010.2,2371.7H650.6V1809c0-85.1,68.6-153.7,153.7-153.7h52.2c85.1,0,153.7,68.6,153.7,153.7V2371.7z"/>
<rect x="735.7" y="2371.7" class="st16" width="285.5" height="60.4"/>
<path class="st10" d="M790.6,2789c0,27.5-22,46.7-46.7,46.7c-27.5,0-46.7-22-46.7-46.7c0-27.5,22-46.7,46.7-46.7
	C771.4,2742.3,790.6,2761.5,790.6,2789z"/>
<path class="st17" d="M768.6,2789c0,13.7-11,24.7-24.7,24.7s-24.7-11-24.7-24.7c0-13.7,11-24.7,24.7-24.7S768.6,2775.2,768.6,2789z"
	/>
<path class="st16" d="M768.6,2712.1h-49.4c-13.7,0-27.5,11-27.5,27.5v27.5h104.3v-27.5C796.1,2725.8,782.3,2712.1,768.6,2712.1z"/>
<path class="st10" d="M927.8,2789c0,27.5-22,46.7-46.7,46.7c-27.5,0-46.7-22-46.7-46.7c0-27.5,22-46.7,46.7-46.7
	S927.8,2761.5,927.8,2789z"/>
<path class="st17" d="M905.9,2789c0,13.7-11,24.7-24.7,24.7s-24.7-11-24.7-24.7c0-13.7,11-24.7,24.7-24.7S905.9,2775.2,905.9,2789z"
	/>
<path class="st16" d="M905.9,2712.1h-49.4c-13.7,0-27.5,11-27.5,27.5v27.5h104.3v-27.5C933.3,2725.8,919.6,2712.1,905.9,2712.1z"/>
<path class="st10" d="M1065.1,2789c0,27.5-22,46.7-46.7,46.7c-27.5,0-46.7-22-46.7-46.7c0-27.5,22-46.7,46.7-46.7
	S1065.1,2761.5,1065.1,2789z"/>
<path class="st17" d="M1040.4,2789c0,13.7-11,24.7-24.7,24.7c-13.7,0-24.7-11-24.7-24.7c0-13.7,11-24.7,24.7-24.7
	C1029.4,2764.2,1040.4,2775.2,1040.4,2789z"/>
<path class="st16" d="M1043.1,2712.1h-49.4c-13.7,0-27.5,11-27.5,27.5v27.5h104.3v-27.5C1067.8,2725.8,1056.8,2712.1,1043.1,2712.1z
	"/>
<path class="st14" d="M1265.5,2300.3H625.9v71.4h636.8c16.5,0,30.2-13.7,30.2-30.2v-11C1295.7,2314.1,1281.9,2300.3,1265.5,2300.3z"
	/>
<path class="st18" d="M1076.1,1732.1c153.7,118,175.7,296.5,175.7,296.5l-299.2,2.7L1076.1,1732.1z"/>
<path class="st11" d="M1273.7,2764.2c5.5-13.7,13.7-35.7,11-71.4c-2.7-13.7-2.7-30.2-5.5-49.4c0-8.2-2.7-19.2-2.7-30.2l63.1,16.5
	c0,11-2.7,22-2.7,30.2c-2.7,19.2,0,41.2,2.7,60.4c0,5.5,2.7,11,2.7,13.7c5.5,11,41.2,43.9,57.6,74.1c2.7,2.7,38.4,8.2,32.9,19.2
	c-2.7,2.7-68.6,8.2-74.1,0c-8.2-8.2-24.7-24.7-43.9-27.5v30.2h-27.5c0,0-2.7-27.5-5.5-35.7C1276.4,2789,1268.2,2778,1273.7,2764.2z"
	/>
<path class="st12" d="M1397.2,2813.7c-11,0-24.7,2.7-30.2,2.7c-5.5-2.7-46.7-52.2-90.6-63.1c-2.7,5.5-2.7,11-5.5,13.7
	c-5.5,13.7,2.7,24.7,5.5,32.9c0,8.2,5.5,35.7,5.5,35.7h27.5v-30.2c19.2,2.7,35.7,22,43.9,27.5c8.2,8.2,71.4,2.7,74.1,0
	C1435.7,2821.9,1400,2816.4,1397.2,2813.7z"/>
<path class="st12" d="M1078.8,1649.8c11-11,8.2-30.2-8.2-41.2c-16.5-11-32.9-22-19.2-43.9l-90.6-74.1c-32.9-5.5-74.1,27.5-79.6,60.4
	c-2.7,32.9-13.7,38.4-27.5,46.7c-11,8.2-13.7,24.7-5.5,43.9c8.2,19.2-8.2,41.2-8.2,41.2h241.6
	C1073.3,1677.2,1067.8,1663.5,1078.8,1649.8z"/>
<path class="st7" d="M1048.6,2069.8l54.9,43.9c134.5,19.2,359.6,32.9,370.6,109.8c11,74.1-87.8,318.4-87.8,318.4l-5.5,162H1260
	l-74.1-373.3c0,0-299.2,16.5-351.4-68.6c-41.2-68.6,11-153.7,11-153.7l162-101.6L1048.6,2069.8z"/>
<path class="st0" d="M1092.5,2102.7H859.2c-60.4-200.4-22-362.3-22-362.3c30.2-22,65.9-27.5,65.9-27.5l98.8-2.7
	c38.4,2.7,76.9,19.2,76.9,19.2c24.7,71.4,60.4,131.8,57.6,167.4C1133.7,1935.2,1078.8,2023.1,1092.5,2102.7z"/>
<path class="st12" d="M949.8,1649.8c-41.2,8.2-65.9-30.2-52.2-60.4c-2.7-63.1,22-123.5,115.3-90.6c46.7,5.5,63.1,65.9,24.7,82.4
	C988.2,1627.8,949.8,1649.8,949.8,1649.8z"/>
<path class="st11" d="M988.2,1674.5c-2.7,16.5-5.5,35.7,22,38.4c27.5,43.9,16.5,82.4,2.7,85.1c-32.9,11-118-74.1-118-82.4
	c0-2.7,22-5.5,27.5-19.2c8.2-13.7,11-46.7,8.2-93.3c16.5,5.5,24.7-8.2,24.7-32.9c0-24.7,11-63.1,57.6-57.6
	c16.5,22,27.5,35.7,24.7,63.1s2.7,49.4-2.7,60.4C1034.9,1649.8,1021.2,1674.5,988.2,1674.5z"/>
<path class="st11" d="M908.6,1611.3c0,8.2,5.5,13.7,13.7,13.7c8.2,0,13.7-5.5,13.7-13.7s-5.5-13.7-13.7-13.7
	C914.1,1597.6,908.6,1603.1,908.6,1611.3z"/>
<path class="st12" d="M982.7,1633.3h41.2C1023.9,1649.8,999.2,1658,982.7,1633.3z"/>
<path class="st12" d="M1015.7,1512.5c-2.7,38.4-57.6,43.9-68.6,43.9C936.1,1553.7,963.5,1496,1015.7,1512.5z"/>
<path class="st12" d="M1103.5,2113.7c-8.2-13.7-11-32.9-11-32.9L851,2078c-11,32.9-11,35.7-11,35.7H1103.5z"/>
<rect x="963.5" y="2075.2" class="st19" width="13.7" height="43.9"/>
<rect x="859.2" y="2075.2" class="st7" width="13.7" height="43.9"/>
<path class="st11" d="M796.1,2031.3c-13.7,68.6-16.5,200.4-8.2,227.8c5.5,27.5-5.5,43.9-27.5,49.4c-22,2.7-32.9,22-46.7,16.5
	c-13.7-5.5,8.2-27.5,19.2-30.2c-30.2,2.7-43.9,38.4-57.6,41.2c-11,0-11-8.2-11-8.2c-11,0-11-8.2-11-8.2c-8.2-8.2,5.5-35.7,24.7-46.7
	c19.2-11,43.9-24.7,43.9-38.4c0-13.7-38.4-178.4-35.7-203.1C691.7,2003.9,796.1,2031.3,796.1,2031.3z"/>
<path class="st0" d="M804.3,1998.4c19.2,8.2,22,35.7-11,46.7c-32.9,11-98.8,8.2-112.5-13.7c-13.7-19.2,8.2-35.7,16.5-38.4
	C705.5,1990.1,804.3,1998.4,804.3,1998.4z"/>
<path class="st18" d="M837.2,1740.4c54.9,76.9,27.5,183.9-5.5,208.6c-30.2,24.7-30.2,63.1-30.2,63.1c-35.7,32.9-115.3,5.5-118,0
	C700,1905.1,757.6,1773.3,837.2,1740.4z"/>
<polygon class="st20" points="1515.3,1809 1194.1,1809 1136.4,2047.8 1460.4,2047.8 "/>
<polygon class="st21" points="1529,1809 1207.8,1809 1152.9,2047.8 1474.1,2047.8 "/>
<path class="st20" d="M1342.3,1946.2h-30.2v-8.2c0-16.5,13.7-27.5,27.5-27.5h30.2v8.2C1369.8,1932.5,1356,1946.2,1342.3,1946.2z"/>
<rect x="1026.6" y="2047.8" class="st21" width="444.7" height="22"/>
<rect x="3848.5" y="2371.7" class="st10" width="49.4" height="400.8"/>
<rect x="3733.2" y="2728.6" class="st10" width="280" height="43.9"/>
<path class="st15" d="M3593.2,2297.6h488.6v71.4h-488.6c-16.5,0-30.2-13.7-30.2-30.2v-11C3563.1,2311.3,3576.8,2297.6,3593.2,2297.6
	z"/>
<path class="st0" d="M3458.7,2130.1h274.5c11,0,22-11,22-22v-8.2c0-11-11-22-22-22h-274.5c-11,0-22,11-22,22v8.2
	C3436.8,2119.2,3447.8,2130.1,3458.7,2130.1z"/>
<path class="st12" d="M3458.7,2078c-11,0-22,11-22,22v8.2c0,11,11,22,22,22h274.5c11,0,22-11,22-22v-8.2c0-11-11-22-22-22H3458.7
	L3458.7,2078z M3736,2130.1h-274.5c-11,0-22-11-22-22v-8.2c0-11,11-22,22-22H3736c11,0,22,11,22,22v8.2
	C3757.9,2119.2,3747,2130.1,3736,2130.1z"/>
<rect x="3730.5" y="2369" class="st16" width="285.5" height="63.1"/>
<path class="st10" d="M3961.1,2789c0,27.5,22,46.7,46.7,46.7c27.5,0,46.7-22,46.7-46.7c0-27.5-22-46.7-46.7-46.7
	C3980.3,2742.3,3961.1,2761.5,3961.1,2789z"/>
<path class="st17" d="M3983,2789c0,13.7,11,24.7,24.7,24.7s24.7-11,24.7-24.7c0-13.7-11-24.7-24.7-24.7S3983,2775.2,3983,2789z"/>
<path class="st16" d="M3983,2712.1h49.4c13.7,0,27.5,11,27.5,27.5v27.5h-104.3v-27.5C3955.6,2725.8,3969.3,2712.1,3983,2712.1z"/>
<path class="st10" d="M3823.8,2789c0,27.5,22,46.7,46.7,46.7c27.5,0,46.7-22,46.7-46.7c0-27.5-22-46.7-46.7-46.7
	S3823.8,2761.5,3823.8,2789z"/>
<path class="st17" d="M3848.5,2789c0,13.7,11,24.7,24.7,24.7c13.7,0,24.7-11,24.7-24.7c0-13.7-11-24.7-24.7-24.7
	C3856.8,2764.2,3848.5,2775.2,3848.5,2789z"/>
<path class="st16" d="M3845.8,2712.1h49.4c13.7,0,27.5,11,27.5,27.5v27.5h-104.3v-27.5C3818.3,2725.8,3832.1,2712.1,3845.8,2712.1z"
	/>
<path class="st10" d="M3686.6,2789c0,27.5,22,46.7,46.7,46.7c27.5,0,46.7-22,46.7-46.7c0-27.5-22-46.7-46.7-46.7
	C3708.5,2742.3,3686.6,2761.5,3686.6,2789z"/>
<path class="st17" d="M3711.3,2789c0,13.7,11,24.7,24.7,24.7s24.7-11,24.7-24.7c0-13.7-11-24.7-24.7-24.7
	C3722.3,2764.2,3711.3,2775.2,3711.3,2789z"/>
<path class="st16" d="M3708.5,2712.1h49.4c13.7,0,27.5,11,27.5,27.5v27.5h-104.3v-27.5C3683.8,2725.8,3694.8,2712.1,3708.5,2712.1z"
	/>
<path class="st15" d="M4090.1,1638.8h-5.5c-19.2,0-35.7,16.5-35.7,35.7v697.2h76.9v-697.2
	C4125.8,1655.3,4109.3,1638.8,4090.1,1638.8z"/>
<path class="st22" d="M3730.5,2042.3c0,0-422.7,46.7-431,90.6c-8.2,41.2,101.6,362.3,101.6,362.3s153.7-247.1,156.5-258
	c2.7-8.2,129-60.4,134.5-63.1c2.7,0,16.5-46.7,24.7-85.1C3725,2064.3,3730.5,2042.3,3730.5,2042.3z"/>
<path class="st23" d="M3469.7,2712.1l-8.2,54.9c11,30.2,8.2,68.6,8.2,68.6h-197.6c22-46.7,101.6-46.7,112.5-68.6
	c11-22,13.7-87.8,13.7-87.8L3469.7,2712.1z"/>
<path class="st12" d="M3420.3,2772.5c0-8.2-5.5-35.7-27.5-43.9c-2.7,16.5-5.5,30.2-8.2,38.4c-11,22-90.6,22-112.5,68.6h197.6
	c0,0,2.7-38.4-8.2-68.6C3461.5,2769.7,3423.1,2786.2,3420.3,2772.5z"/>
<path class="st13" d="M3277.6,2827.4c-2.7,2.7-5.5,5.5-5.5,8.2h197.6c0,0,0-2.7,0-8.2H3277.6z"/>
<path class="st13" d="M3401.1,2778L3401.1,2778c0,0-5.5-11-11-13.7c-2.7,0-5.5,0-8.2,0h-2.7v-2.7c2.7-2.7,8.2-2.7,11,0
	C3398.4,2767,3401.1,2778,3401.1,2778C3403.8,2778,3401.1,2778,3401.1,2778L3401.1,2778z"/>
<path class="st13" d="M3379.1,2794.4L3379.1,2794.4c0,0-5.5-11-11-13.7c-2.7,0-5.5,0-8.2,0h-2.7v-2.7c2.7-2.7,8.2-2.7,11,0
	C3376.4,2783.5,3381.9,2791.7,3379.1,2794.4C3381.9,2794.4,3381.9,2794.4,3379.1,2794.4C3381.9,2794.4,3379.1,2794.4,3379.1,2794.4z
	"/>
<path class="st13" d="M3346.2,2805.4L3346.2,2805.4c0,0-5.5-11-11-13.7c-2.7,0-5.5,0-8.2,0h-2.7v-2.7c2.7-2.7,8.2-2.7,11,0
	C3343.4,2794.4,3346.2,2802.7,3346.2,2805.4L3346.2,2805.4L3346.2,2805.4z"/>
<path class="st24" d="M3535.6,1965.4c-71.4,49.4-178.4,82.4-178.4,82.4l43.9,57.6c79.6-8.2,183.9-43.9,183.9-43.9L3535.6,1965.4z"/>
<path class="st25" d="M3554.8,1946.2c-8.2-8.2-32.9-8.2-41.2,11c-5.5,13.7,16.5,63.1,38.4,85.1c22,22,41.2,30.2,57.6,22
	c16.5-5.5,16.5-24.7,16.5-24.7L3554.8,1946.2z"/>
<path class="st26" d="M3768.9,1704.7c-52.2-22-90.6,85.1-140,151c-38.4,52.2-76.9,82.4-90.6,96.1c-2.7,2.7-5.5,8.2-2.7,11
	c11,22,41.2,85.1,74.1,85.1C3741.5,1998.4,3884.2,1803.5,3768.9,1704.7z"/>
<path class="st27" d="M3395.6,2171.3c2.7-5.5,332.1-87.8,332.1-87.8c2.7-8.2,2.7-19.2,2.7-30.2l307.4,120.8
	c-38.4,145.5-189.4,123.5-485.9,126.3c-16.5,13.7-57.6,431-57.6,431l-137.3-13.7C3357.2,2712.1,3392.9,2176.8,3395.6,2171.3z"/>
<polygon class="st20" points="3187,1880.3 3497.2,1880.3 3549.3,2108.2 3241.9,2108.2 "/>
<polygon class="st21" points="3173.3,1880.3 3483.4,1880.3 3535.6,2108.2 3228.2,2108.2 "/>
<path class="st20" d="M3357.2,2012.1h27.5v-5.5c0-16.5-13.7-30.2-30.2-30.2H3327v5.5C3327,1998.4,3340.7,2012.1,3357.2,2012.1z"/>
<rect x="3228.2" y="2108.2" class="st21" width="428.2" height="19.2"/>
<path class="st26" d="M3694.8,1825.4c-2.7-90.6,8.2-109.8,19.2-131.8s85.1-35.7,85.1-35.7c96.1,43.9,266.3,293.7,247.1,472.1
	c-2.7,16.5-5.5,30.2-8.2,43.9c0,2.7-2.7,5.5-2.7,8.2c-137.3-27.5-258-93.3-304.7-120.8C3733.2,2003.9,3697.6,1907.8,3694.8,1825.4z"
	/>
<path class="st23" d="M3744.2,2003.9c0,0-148.2,35.7-162,30.2c-11-8.2-65.9-19.2-76.9-19.2s-54.9,16.5-54.9,16.5
	c2.7,5.5,24.7,2.7,24.7,2.7s-19.2,13.7-11,19.2c0,8.2,5.5,8.2,5.5,8.2c2.7,5.5,32.9,0,49.4,8.2c16.5,8.2,46.7,27.5,57.6,24.7
	c11-2.7,27.5-8.2,27.5-8.2l175.7,27.5L3744.2,2003.9z"/>
<path class="st26" d="M3779.9,1995.6c-5.5-11-27.5-13.7-38.4-2.7c-11,11,0,71.4,16.5,98.8c16.5,27.5,35.7,38.4,52.2,35.7
	c16.5-2.7,22-19.2,22-19.2L3779.9,1995.6z"/>
<path class="st12" d="M3763.4,1597.6c0,0-16.5-118-71.4-115.3c-38.4-13.7-82.4,30.2-82.4,30.2c-32.9,19.2-27.5,57.6-2.7,60.4
	c24.7,2.7,93.3,54.9,93.3,54.9l54.9-16.5L3763.4,1597.6z"/>
<path class="st23" d="M3612.5,1540c-5.5,16.5-8.2,32.9-5.5,43.9c2.7,8.2,19.2,30.2,22,32.9c0,2.7-11,35.7-11,35.7s8.2,2.7,22-2.7
	c8.2,16.5,32.9,46.7,41.2,46.7c8.2,0,27.5-13.7,27.5-13.7c8.2,2.7,11,11,11,11s-16.5,13.7-2.7,19.2c13.7,2.7,82.4-38.4,82.4-49.4
	c-16.5-24.7-35.7-60.4-35.7-60.4c-8.2,2.7-22-5.5-22-5.5s-8.2,0-8.2-2.7c-8.2-2.7-11,2.7-16.5,5.5c-2.7,2.7-19.2-8.2-16.5-16.5
	c2.7-8.2,5.5-19.2,2.7-24.7c0-5.5-22-38.4-32.9-32.9C3661.9,1529,3626.2,1548.2,3612.5,1540z"/>
<path class="st23" d="M3752.5,1605.8c0,11-8.2,16.5-16.5,16.5c-11,0-16.5-8.2-16.5-16.5c0-11,8.2-16.5,16.5-16.5
	C3744.2,1586.6,3752.5,1594.9,3752.5,1605.8z"/>
<path class="st26" d="M3832.1,1699.2c-8.2-2.7-16.5-5.5-22-2.7c-46.7,13.7-74.1,49.4-49.4,120.8c24.7,79.6,63.1,159.2,8.2,178.4
	c-11,22,16.5,74.1,30.2,98.8c5.5,8.2,11,13.7,22,13.7c71.4,11,137.3-16.5,140-109.8C3961.1,1907.8,3908.9,1743.1,3832.1,1699.2z"/>
<path class="st12" d="M3639.9,1649.8c24.7-11,35.7-8.2,49.4-22c16.5-11,2.7-43.9,8.2-52.2c2.7-8.2,16.5,16.5,16.5,16.5
	c-2.7,13.7,5.5,22,11,30.2c2.7,8.2,8.2,24.7,5.5,27.5c-2.7,2.7-11,22-24.7,30.2c-13.7,8.2-27.5,22-38.4,11
	C3656.4,1688.2,3639.9,1649.8,3639.9,1649.8z"/>
<path class="st23" d="M3648.1,1660.7c13.7-8.2,38.4-13.7,41.2-8.2C3689.3,1658,3653.6,1688.2,3648.1,1660.7z"/>
<path class="st14" d="M3785.4,2160.3h274.5c11,0,22-11,22-22v-8.2c0-11-11-22-22-22h-274.5c-11,0-22,11-22,22v8.2
	C3763.4,2152.1,3774.4,2160.3,3785.4,2160.3z"/>
<rect x="952.5" y="2067" class="st28" width="1836.4" height="76.9"/>
<path class="st29" d="M2893.3,2121.9c0,0-205.9-5.5-238.8,30.2c-32.9,32.9-16.5,601.2-16.5,601.2h134.5l35.7-433.7h293.7l11-222.3
	L2893.3,2121.9z"/>
<path class="st30" d="M2684.6,2121.9c0,0-205.9-5.5-238.8,30.2c-32.9,32.9-16.5,601.2-16.5,601.2h126.3l43.9-433.7h293.7l11-222.3
	L2684.6,2121.9z"/>
<path class="st12" d="M2805.4,1534.5c-30.2-22-11-49.4-8.2-49.4c2.7-24.7,32.9-71.4,115.3-22c2.7-16.5,16.5-16.5,11,2.7
	c13.7-2.7,16.5,8.2,11,11c38.4,32.9,30.2,63.1,22,71.4c5.5,30.2-30.2,46.7-30.2,46.7c-13.7,0-52.2,27.5-63.1,22
	c-11-8.2-38.4-22-43.9-35.7C2821.9,1567.4,2805.4,1534.5,2805.4,1534.5z"/>
<path class="st31" d="M2928.9,1597.6c0,0-8.2,74.1,19.2,90.6c-41.2,11-104.3,22-120.8-2.7c19.2,0,19.2-5.5,19.2-24.7
	c-43.9-8.2-41.2-43.9-43.9-93.3c0-24.7-2.7-49.4,0-68.6c5.5,22,35.7,32.9,35.7,32.9c-2.7,19.2,2.7,41.2,22,38.4
	c19.2-2.7,22,2.7,22,2.7C2882.3,1592.1,2909.7,1600.4,2928.9,1597.6z"/>
<path class="st31" d="M2890.5,1570.2c0,11-8.2,19.2-19.2,19.2c-11,0-19.2-8.2-19.2-19.2c0-11,8.2-19.2,19.2-19.2
	C2879.5,1550.9,2890.5,1561.9,2890.5,1570.2z"/>
<path class="st32" d="M3014,1715.6c118,120.8,194.9,343.1-8.2,376.1C2799.9,2127.4,3014,1715.6,3014,1715.6z"/>
<path class="st33" d="M2830.1,1682.7c-32.9,5.5-60.4,24.7-60.4,24.7c-54.9,87.8-82.4,409-82.4,409l348.6,5.5
	c0-24.7,5.5-376.1-24.7-403.5c-27.5-27.5-71.4-38.4-71.4-38.4S2868.6,1680,2830.1,1682.7z"/>
<path class="st31" d="M2462.3,1885.8c-2.7-8.2-13.7-54.9-16.5-60.4c-2.7-5.5-43.9-41.2-46.7-43.9c-5.5-2.7-38.4-13.7-38.4-13.7
	c-5.5,8.2,0,16.5,8.2,22c8.2,5.5,22,13.7,22,16.5s5.5,11,5.5,11c-2.7,0-13.7,24.7-16.5,32.9c-2.7,8.2,0,19.2,8.2,30.2
	c8.2,11,54.9,43.9,54.9,43.9L2462.3,1885.8z"/>
<path class="st26" d="M2769.7,1704.7c-35.7,19.2-71.4,93.3-101.6,140c-30.2,46.7-134.5,87.8-211.4,8.2c-2.7,2.7-24.7,74.1-24.7,74.1
	c16.5,49.4,112.5,126.3,233.3,109.8s145.5-142.7,148.2-181.2C2821.9,1789.8,2808.2,1715.6,2769.7,1704.7z"/>
<rect x="2978.4" y="2371.7" class="st10" width="49.4" height="400.8"/>
<rect x="2863.1" y="2728.6" class="st10" width="280" height="43.9"/>
<path class="st14" d="M2616,2300.3h636.8v71.4H2616c-16.5,0-30.2-13.7-30.2-30.2v-11C2585.8,2314.1,2599.5,2300.3,2616,2300.3z"/>
<path class="st14" d="M2871.3,2371.7h359.6V1809c0-85.1-68.6-153.7-153.7-153.7H3025c-85.1,0-153.7,68.6-153.7,153.7V2371.7z"/>
<path class="st15" d="M2896,2371.7h359.6V1809c0-85.1-68.6-153.7-153.7-153.7h-52.2c-85.1,0-153.7,68.6-153.7,153.7V2371.7z"/>
<path class="st14" d="M2588.6,2130.1h274.5c11,0,22-11,22-22v-8.2c0-11-11-22-22-22h-274.5c-11,0-22,11-22,22v8.2
	C2566.6,2119.2,2577.6,2130.1,2588.6,2130.1z"/>
<rect x="2860.3" y="2371.7" class="st16" width="285.5" height="60.4"/>
<path class="st10" d="M3088.2,2789c0,27.5,22,46.7,46.7,46.7c27.5,0,46.7-22,46.7-46.7c0-27.5-22-46.7-46.7-46.7
	C3110.1,2742.3,3088.2,2761.5,3088.2,2789z"/>
<path class="st17" d="M3112.9,2789c0,13.7,11,24.7,24.7,24.7s24.7-11,24.7-24.7c0-13.7-11-24.7-24.7-24.7S3112.9,2775.2,3112.9,2789
	z"/>
<path class="st16" d="M3112.9,2712.1h49.4c13.7,0,27.5,11,27.5,27.5v27.5h-104.3v-27.5C3085.4,2725.8,3096.4,2712.1,3112.9,2712.1z"
	/>
<path class="st10" d="M2953.7,2789c0,27.5,22,46.7,46.7,46.7c27.5,0,46.7-22,46.7-46.7c0-27.5-22-46.7-46.7-46.7
	C2972.9,2742.3,2953.7,2761.5,2953.7,2789z"/>
<path class="st17" d="M2975.6,2789c0,13.7,11,24.7,24.7,24.7s24.7-11,24.7-24.7c0-13.7-11-24.7-24.7-24.7S2975.6,2775.2,2975.6,2789
	z"/>
<path class="st16" d="M2975.6,2712.1h49.4c13.7,0,27.5,11,27.5,27.5v27.5h-104.3v-27.5C2948.2,2725.8,2959.1,2712.1,2975.6,2712.1z"
	/>
<path class="st10" d="M2816.4,2789c0,27.5,22,46.7,46.7,46.7c27.5,0,46.7-22,46.7-46.7c0-27.5-22-46.7-46.7-46.7
	C2838.4,2742.3,2816.4,2761.5,2816.4,2789z"/>
<path class="st17" d="M2838.4,2789c0,13.7,11,24.7,24.7,24.7c13.7,0,24.7-11,24.7-24.7c0-13.7-11-24.7-24.7-24.7
	C2849.3,2764.2,2838.4,2775.2,2838.4,2789z"/>
<path class="st16" d="M2838.4,2712.1h49.4c13.7,0,27.5,11,27.5,27.5v27.5h-104.3v-27.5C2810.9,2725.8,2824.6,2712.1,2838.4,2712.1z"
	/>
<polygon class="st10" points="1306.6,2143.9 1254.5,2143.9 1106.2,2838.4 1158.4,2838.4 "/>
<path class="st8" d="M3527.4,1386.2l109.8-60.4c-16.5-24.7-27.5-52.2-27.5-82.4c0-79.6,65.9-145.5,145.5-145.5h422.7
	c79.6,0,145.5,65.9,145.5,145.5c0,79.6-65.9,145.5-145.5,145.5h-422.7c-5.5,0-11,0-16.5,0L3527.4,1386.2L3527.4,1386.2z"/>
<path class="st0" d="M3887,1196.8h-170.2c-8.2,0-13.7-5.5-13.7-13.7v-8.2c0-8.2,5.5-13.7,13.7-13.7H3887c8.2,0,13.7,5.5,13.7,13.7
	v8.2C3900.7,1191.3,3892.5,1196.8,3887,1196.8z"/>
<path class="st0" d="M4205.4,1356h-170.2c-8.2,0-13.7-5.5-13.7-13.7v-8.2c0-8.2,5.5-13.7,13.7-13.7h170.2c8.2,0,13.7,5.5,13.7,13.7
	v8.2C4219.1,1347.8,4210.9,1356,4205.4,1356z"/>
<path class="st0" d="M4213.6,1276.4h-496.9c-8.2,0-13.7-5.5-13.7-13.7v-8.2c0-8.2,5.5-13.7,13.7-13.7h496.9
	c8.2,0,13.7,5.5,13.7,13.7v8.2C4227.4,1271,4219.1,1276.4,4213.6,1276.4z"/>
<path class="st2" d="M1476.8,1183.1l-109.8-60.4c16.5-24.7,27.5-52.2,27.5-85.1l0,0c0-79.6-65.9-145.5-145.5-145.5H820.8
	c-79.6,0-145.5,65.9-145.5,145.5l0,0c0,79.6,65.9,145.5,145.5,145.5h425.5c5.5,0,11,0,16.5,0H1476.8z"/>
<path class="st0" d="M955.3,991H785.1c-8.2,0-13.7-5.5-13.7-13.7V969c0-8.2,5.5-13.7,13.7-13.7h170.2c8.2,0,13.7,5.5,13.7,13.7v8.2
	C969,985.5,960.8,991,955.3,991z"/>
<path class="st0" d="M1276.4,1152.9h-170.2c-8.2,0-13.7-5.5-13.7-13.7v-8.2c0-8.2,5.5-13.7,13.7-13.7h170.2
	c8.2,0,13.7,5.5,13.7,13.7v8.2C1290.2,1144.7,1284.7,1152.9,1276.4,1152.9z"/>
<path class="st0" d="M1284.7,1073.3H782.3c-8.2,0-13.7-5.5-13.7-13.7v-8.2c0-8.2,5.5-13.7,13.7-13.7h502.3c8.2,0,13.7,5.5,13.7,13.7
	v8.2C1298.4,1065.1,1292.9,1073.3,1284.7,1073.3z"/>
<path class="st2" d="M3554.8,1040.4l71.4-38.4c-11-16.5-16.5-32.9-16.5-54.9c0-52.2,41.2-93.3,93.3-93.3h271.8
	c52.2,0,93.3,41.2,93.3,93.3c0,52.2-41.2,93.3-93.3,93.3H3703c-2.7,0-8.2,0-11,0H3554.8z"/>
<path class="st0" d="M3887,916.8h109.8c5.5,0,8.2-2.7,8.2-8.2v-5.5c0-5.5-2.7-8.2-8.2-8.2H3887c-5.5,0-8.2,2.7-8.2,8.2v5.5
	C3878.7,914.1,3881.5,916.8,3887,916.8z"/>
<path class="st0" d="M3681.1,1018.4h109.8c5.5,0,8.2-2.7,8.2-8.2v-5.5c0-5.5-2.7-8.2-8.2-8.2h-109.8c-5.5,0-8.2,2.7-8.2,8.2v5.5
	C3672.9,1015.7,3675.6,1018.4,3681.1,1018.4z"/>
<path class="st0" d="M3675.6,969h321.2c5.5,0,8.2-2.7,8.2-8.2v-5.5c0-5.5-2.7-8.2-8.2-8.2h-321.2c-5.5,0-8.2,2.7-8.2,8.2v5.5
	C3667.4,963.5,3670.1,969,3675.6,969z"/>
<path class="st0" d="M1636,812.5h463.9c11,0,19.2-8.2,19.2-19.2v-13.7c0-11-8.2-19.2-19.2-19.2H1636c-11,0-19.2,8.2-19.2,19.2v13.7
	C1616.8,801.5,1625.1,812.5,1636,812.5z"/>
<path class="st0" d="M1636,903.1h463.9c11,0,19.2-8.2,19.2-19.2v-13.7c0-11-8.2-19.2-19.2-19.2H1636c-11,0-19.2,8.2-19.2,19.2v13.7
	C1616.8,894.9,1625.1,903.1,1636,903.1z"/>
<path class="st0" d="M1636,996.4h208.6c11,0,19.2-8.2,19.2-19.2v-13.7c0-11-8.2-19.2-19.2-19.2H1636c-11,0-19.2,8.2-19.2,19.2v13.7
	C1616.8,988.2,1625.1,996.4,1636,996.4z"/>
<rect x="2379.9" y="1034.9" class="st34" width="74.1" height="302"/>
<rect x="2489.7" y="1098" class="st35" width="74.1" height="241.6"/>
<rect x="2599.5" y="1207.8" class="st26" width="74.1" height="131.8"/>
<rect x="2709.3" y="988.2" class="st35" width="74.1" height="351.4"/>
<rect x="2819.1" y="837.2" class="st34" width="74.1" height="499.6"/>
<rect x="2928.9" y="1001.9" class="st26" width="74.1" height="334.9"/>
<rect x="3038.8" y="900.4" class="st35" width="74.1" height="436.5"/>
<rect x="3148.6" y="1076.1" class="st26" width="74.1" height="260.8"/>
<rect x="2267.4" y="1367" class="st4" width="1067.8" height="16.5"/>
<path class="st36" d="M1874.9,1372.5l65.9-68.6c76.9,79.6,93.3,203.1,35.7,299.2l-82.4-52.2
	C1929.8,1493.3,1918.8,1419.2,1874.9,1372.5z"/>
<path class="st2" d="M1682.7,1600.4c65.9,43.9,156.5,27.5,203.1-35.7l79.6,52.2c-76.9,107.1-225.1,137.3-334.9,63.1
	c-85.1-57.6-126.3-159.2-107.1-252.5l93.3,22C1605.8,1507,1630.5,1567.4,1682.7,1600.4z"/>
<path class="st37" d="M1765.1,1325.9c-49.4,0-96.1,24.7-126.3,68.6c-8.2,13.7-13.7,24.7-19.2,38.4l-93.3-22
	c5.5-24.7,16.5-46.7,32.9-68.6c49.4-74.1,129-112.5,211.4-109.8L1765.1,1325.9z"/>
<path class="st2" d="M1781.5,1325.9l5.5-96.1c38.4,2.7,76.9,16.5,112.5,38.4c11,5.5,19.2,13.7,27.5,19.2l-65.9,68.6
	c-5.5-2.7-8.2-8.2-13.7-11C1828.2,1336.8,1803.5,1328.6,1781.5,1325.9z"/>
<path class="st38" d="M2352.5,2948.2c1213.3,0,2196,22,2196,49.4c0,5.5-54.9,13.7-156.5,19.2H312.9c-101.6-5.5-156.5-11-156.5-19.2
	C156.5,2970.1,1139.2,2948.2,2352.5,2948.2z"/>
<path class="st39" d="M4290.5,2950.9H485.9v-30.2c0-43.9,35.7-82.4,82.4-82.4h3639.9c43.9,0,82.4,35.7,82.4,82.4V2950.9z"/>
</svg>
